  0
SECTION
  2
HEADER
  9
$ACADVER
  1
AC2.10
  0
ENDSEC
  0
SECTION
  2
TABLES
  0
TABLE
  2
LAYER
 70
     8
  0
LAYER
  2
0
 62
     7
 70
0
  6
CONTINUOUS
  0
LAYER
  2
1
 62
     1
 70
0
  6
CONTINUOUS
  0
LAYER
  2
2
 62
     2
 70
0
  6
CONTINUOUS
  0
LAYER
  2
3
 62
     3
 70
0
  6
CONTINUOUS
  0
LAYER
  2
4
 62
     4
 70
0
  6
CONTINUOUS
  0
LAYER
  2
5
 62
     5
 70
0
  6
CONTINUOUS
  0
LAYER
  2
6
 62
     6
 70
0
  6
CONTINUOUS
  0
LAYER
  2
7
 62
     7
 70
0
  6
CONTINUOUS
  0
ENDTAB
  0
TABLE
  2
STYLE
 70
     1
  0
STYLE
 70
     0
  2
STANDARD
  3
TXT
 40
0.00
 41
1.00
 42
1.00
 50
0.00
 71
     0
  0
ENDTAB
  0
ENDSEC
  0
SECTION
  2
BLOCKS
  0
BLOCK
  8
0
  2
EPAD
 70
0
 10
0.0
 20
0.0
  0
POLYLINE
  8
0
 66
1
 70
1
 40
0.5
 41
0.5
  0
VERTEX
  8
0
 10
-0.25
 20
0.0
 42
1.0
  0
VERTEX
  8
0
 10
0.25
 20
0.0
 42
1.0
  0
SEQEND
  8
0
  0
ENDBLK
  8
0
  0
BLOCK
  8
0
  2
RPAD
 70
0
 10
0.0
 20
0.0
  0
TRACE
  8
0
 10
-0.5
 20
-0.5
 11
-0.5
 21
0.5
 12
0.5
 22
-0.5
 13
0.5
 23
0.5
  0
ENDBLK
  8
0
  0
ENDSEC
0
SECTION
2
ENTITIES
0
POLYLINE
8
0
66
1
40
0.010000
41
0.010000
0
VERTEX
8
0
10
-1.100000
20
0.850000
0
VERTEX
8
0
10
-0.175000
20
0.850000
0
VERTEX
8
0
10
-0.175000
20
0.925000
0
SEQEND
8
0
0
POLYLINE
8
0
66
1
40
0.010000
41
0.010000
0
VERTEX
8
0
10
-1.500000
20
0.975000
0
VERTEX
8
0
10
-1.375000
20
1.100000
0
VERTEX
8
0
10
-0.375000
20
1.100000
0
VERTEX
8
0
10
-0.375000
20
1.025000
0
SEQEND
8
0
0
POLYLINE
8
0
66
1
40
0.010000
41
0.010000
0
VERTEX
8
0
10
-0.375000
20
-0.325000
0
VERTEX
8
0
10
-0.225000
20
-0.175000
0
VERTEX
8
0
10
1.475000
20
-0.175000
0
VERTEX
8
0
10
1.575000
20
-0.075000
0
SEQEND
8
0
0
POLYLINE
8
0
66
1
40
0.010000
41
0.010000
0
VERTEX
8
0
10
-0.175000
20
-0.325000
0
VERTEX
8
0
10
-0.100000
20
-0.250000
0
VERTEX
8
0
10
1.675000
20
-0.250000
0
VERTEX
8
0
10
1.850000
20
-0.075000
0
SEQEND
8
0
0
POLYLINE
8
0
66
1
40
0.010000
41
0.010000
0
VERTEX
8
0
10
-0.725000
20
0.200000
0
VERTEX
8
0
10
-0.750000
20
0.175000
0
VERTEX
8
0
10
-1.900000
20
0.175000
0
VERTEX
8
0
10
-1.925000
20
0.200000
0
VERTEX
8
0
10
-1.925000
20
0.350000
0
SEQEND
8
0
0
POLYLINE
8
0
66
1
40
0.010000
41
0.010000
0
VERTEX
8
0
10
-0.450000
20
0.150000
0
VERTEX
8
0
10
-0.600000
20
0.000000
0
VERTEX
8
0
10
-1.800000
20
0.000000
0
VERTEX
8
0
10
-1.825000
20
-0.025000
0
VERTEX
8
0
10
-1.825000
20
-0.700000
0
SEQEND
8
0
0
POLYLINE
8
0
66
1
40
0.010000
41
0.010000
0
VERTEX
8
0
10
-0.450000
20
0.150000
0
VERTEX
8
0
10
1.642000
20
0.150000
0
VERTEX
8
0
10
1.712000
20
0.220000
0
SEQEND
8
0
0
POLYLINE
8
0
66
1
40
0.010000
41
0.010000
0
VERTEX
8
0
10
-0.450000
20
0.150000
0
VERTEX
8
0
10
-0.475000
20
0.175000
0
VERTEX
8
0
10
-0.475000
20
0.275000
0
SEQEND
8
0
0
POLYLINE
8
0
66
1
40
0.010000
41
0.010000
0
VERTEX
8
0
10
0.925000
20
0.025000
0
VERTEX
8
0
10
-0.425000
20
0.025000
0
SEQEND
8
0
0
POLYLINE
8
0
66
1
40
0.010000
41
0.010000
0
VERTEX
8
0
10
-0.525000
20
0.375000
0
VERTEX
8
0
10
-0.450000
20
0.450000
0
VERTEX
8
0
10
-0.250000
20
0.450000
0
VERTEX
8
0
10
-0.075000
20
0.275000
0
SEQEND
8
0
0
POLYLINE
8
0
66
1
40
0.010000
41
0.010000
0
VERTEX
8
0
10
-0.525000
20
0.375000
0
VERTEX
8
0
10
-0.975000
20
0.375000
0
VERTEX
8
0
10
-1.075000
20
0.275000
0
SEQEND
8
0
0
POLYLINE
8
0
66
1
40
0.010000
41
0.010000
0
VERTEX
8
0
10
0.200000
20
0.750000
0
VERTEX
8
0
10
-1.125000
20
0.750000
0
VERTEX
8
0
10
-1.150000
20
0.775000
0
VERTEX
8
0
10
-1.150000
20
1.055000
0
VERTEX
8
0
10
-1.125000
20
1.080000
0
VERTEX
8
0
10
-0.675000
20
1.080000
0
VERTEX
8
0
10
-0.675000
20
1.025000
0
SEQEND
8
0
0
POLYLINE
8
0
66
1
40
0.010000
41
0.010000
0
VERTEX
8
0
10
-1.900000
20
1.025000
0
VERTEX
8
0
10
-1.550000
20
1.025000
0
SEQEND
8
0
0
POLYLINE
8
0
66
1
40
0.010000
41
0.010000
0
VERTEX
8
0
10
-0.275000
20
-0.975000
0
VERTEX
8
0
10
-0.375000
20
-1.075000
0
VERTEX
8
0
10
-1.900000
20
-1.075000
0
VERTEX
8
0
10
-1.925000
20
-1.050000
0
VERTEX
8
0
10
-1.925000
20
-0.950000
0
SEQEND
8
0
0
POLYLINE
8
0
66
1
40
0.010000
41
0.010000
0
VERTEX
8
0
10
-1.725000
20
-0.950000
0
VERTEX
8
0
10
-1.725000
20
-1.025000
0
VERTEX
8
0
10
-0.425000
20
-1.025000
0
VERTEX
8
0
10
-0.375000
20
-0.975000
0
SEQEND
8
0
0
POLYLINE
8
0
66
1
40
0.010000
41
0.010000
0
VERTEX
8
0
10
-1.725000
20
-0.950000
0
VERTEX
8
0
10
-1.725000
20
-0.275000
0
VERTEX
8
0
10
-1.700000
20
-0.250000
0
VERTEX
8
0
10
-1.375000
20
-0.250000
0
SEQEND
8
0
0
POLYLINE
8
0
66
1
40
0.010000
41
0.010000
0
VERTEX
8
0
10
-1.100000
20
0.850000
0
VERTEX
8
0
10
-1.437000
20
0.512000
0
VERTEX
8
0
10
-1.437000
20
-0.362000
0
VERTEX
8
0
10
-1.400000
20
-0.400000
0
VERTEX
8
0
10
-1.050000
20
-0.400000
0
VERTEX
8
0
10
-0.975000
20
-0.325000
0
SEQEND
8
0
0
POLYLINE
8
0
66
1
40
0.010000
41
0.010000
0
VERTEX
8
0
10
-0.875000
20
-0.325000
0
VERTEX
8
0
10
-0.625000
20
-0.075000
0
VERTEX
8
0
10
0.050000
20
-0.075000
0
VERTEX
8
0
10
0.080000
20
-0.045000
0
VERTEX
8
0
10
0.080000
20
1.000000
0
VERTEX
8
0
10
0.055000
20
1.025000
0
VERTEX
8
0
10
-0.175000
20
1.025000
0
SEQEND
8
0
0
POLYLINE
8
0
66
1
40
0.010000
41
0.010000
0
VERTEX
8
0
10
-0.275000
20
1.025000
0
VERTEX
8
0
10
-0.275000
20
1.100000
0
VERTEX
8
0
10
0.075000
20
1.100000
0
VERTEX
8
0
10
0.100000
20
1.075000
0
VERTEX
8
0
10
0.100000
20
-0.075000
0
VERTEX
8
0
10
0.066000
20
-0.108000
0
VERTEX
8
0
10
-0.558000
20
-0.108000
0
VERTEX
8
0
10
-0.775000
20
-0.325000
0
SEQEND
8
0
0
POLYLINE
8
0
66
1
40
0.010000
41
0.010000
0
VERTEX
8
0
10
-1.500000
20
0.975000
0
VERTEX
8
0
10
-1.500000
20
-0.400000
0
VERTEX
8
0
10
-1.475000
20
-0.425000
0
VERTEX
8
0
10
-0.775000
20
-0.425000
0
VERTEX
8
0
10
-0.675000
20
-0.325000
0
SEQEND
8
0
0
POLYLINE
8
0
66
1
40
0.010000
41
0.010000
0
VERTEX
8
0
10
-0.575000
20
-0.325000
0
VERTEX
8
0
10
-0.474000
20
-0.224000
0
VERTEX
8
0
10
0.100000
20
-0.224000
0
VERTEX
8
0
10
0.125000
20
-0.199000
0
VERTEX
8
0
10
0.125000
20
1.100000
0
VERTEX
8
0
10
0.100000
20
1.125000
0
VERTEX
8
0
10
-0.450000
20
1.125000
0
VERTEX
8
0
10
-0.475000
20
1.100000
0
VERTEX
8
0
10
-0.475000
20
1.025000
0
SEQEND
8
0
0
POLYLINE
8
0
66
1
40
0.010000
41
0.010000
0
VERTEX
8
0
10
-0.175000
20
-0.325000
0
VERTEX
8
0
10
-0.175000
20
-0.450000
0
VERTEX
8
0
10
-0.200000
20
-0.475000
0
VERTEX
8
0
10
-0.275000
20
-0.475000
0
VERTEX
8
0
10
-0.775000
20
-0.975000
0
SEQEND
8
0
0
POLYLINE
8
0
66
1
40
0.010000
41
0.010000
0
VERTEX
8
0
10
0.025000
20
0.275000
0
VERTEX
8
0
10
0.025000
20
0.500000
0
VERTEX
8
0
10
-0.275000
20
0.800000
0
VERTEX
8
0
10
-0.275000
20
0.925000
0
SEQEND
8
0
0
POLYLINE
8
0
66
1
40
0.010000
41
0.010000
0
VERTEX
8
0
10
-0.175000
20
0.275000
0
VERTEX
8
0
10
-0.175000
20
0.575000
0
VERTEX
8
0
10
-0.375000
20
0.775000
0
VERTEX
8
0
10
-0.375000
20
0.925000
0
SEQEND
8
0
0
POLYLINE
8
0
66
1
40
0.010000
41
0.010000
0
VERTEX
8
0
10
-1.075000
20
-0.325000
0
VERTEX
8
0
10
-1.075000
20
-0.075000
0
VERTEX
8
0
10
-1.275000
20
0.125000
0
VERTEX
8
0
10
-1.275000
20
0.275000
0
SEQEND
8
0
0
POLYLINE
8
0
66
1
40
0.010000
41
0.010000
0
VERTEX
8
0
10
-0.725000
20
0.200000
0
VERTEX
8
0
10
-0.350000
20
0.200000
0
VERTEX
8
0
10
-0.275000
20
0.275000
0
SEQEND
8
0
0
POLYLINE
8
0
66
1
40
0.010000
41
0.010000
0
VERTEX
8
0
10
-0.425000
20
0.025000
0
VERTEX
8
0
10
-0.750000
20
0.025000
0
VERTEX
8
0
10
-0.775000
20
0.050000
0
VERTEX
8
0
10
-0.775000
20
0.275000
0
SEQEND
8
0
0
POLYLINE
8
0
66
1
40
0.010000
41
0.010000
0
VERTEX
8
0
10
0.925000
20
0.025000
0
VERTEX
8
0
10
0.925000
20
0.024000
0
VERTEX
8
0
10
0.925000
20
-0.078000
0
SEQEND
8
0
0
POLYLINE
8
0
66
1
40
0.010000
41
0.010000
0
VERTEX
8
0
10
-0.525000
20
0.375000
0
VERTEX
8
0
10
-0.475000
20
0.425000
0
VERTEX
8
0
10
-0.475000
20
0.925000
0
SEQEND
8
0
0
POLYLINE
8
0
66
1
40
0.010000
41
0.010000
0
VERTEX
8
0
10
0.200000
20
0.750000
0
VERTEX
8
0
10
0.200000
20
-0.375000
0
VERTEX
8
0
10
-0.325000
20
-0.900000
0
VERTEX
8
0
10
-0.325000
20
-1.225000
0
VERTEX
8
0
10
-0.275000
20
-1.275000
0
SEQEND
8
0
0
POLYLINE
8
0
66
1
40
0.010000
41
0.010000
0
VERTEX
8
0
10
-0.575000
20
-1.275000
0
VERTEX
8
0
10
-0.800000
20
-1.050000
0
VERTEX
8
0
10
-1.800000
20
-1.050000
0
VERTEX
8
0
10
-1.825000
20
-1.025000
0
VERTEX
8
0
10
-1.825000
20
1.075000
0
VERTEX
8
0
10
-1.800000
20
1.100000
0
VERTEX
8
0
10
-0.875000
20
1.100000
0
VERTEX
8
0
10
-0.875000
20
1.025000
0
SEQEND
8
0
0
POLYLINE
8
0
66
1
40
0.010000
41
0.010000
0
VERTEX
8
0
10
-1.550000
20
1.025000
0
VERTEX
8
0
10
-1.075000
20
1.025000
0
SEQEND
8
0
0
POLYLINE
8
0
66
1
40
0.010000
41
0.010000
0
VERTEX
8
0
10
-1.900000
20
1.025000
0
VERTEX
8
0
10
-1.900000
20
-1.250000
0
VERTEX
8
0
10
-1.875000
20
-1.275000
0
VERTEX
8
0
10
-0.775000
20
-1.275000
0
SEQEND
8
0
0
POLYLINE
8
0
66
1
40
0.010000
41
0.010000
0
VERTEX
8
0
10
-0.275000
20
-0.975000
0
VERTEX
8
0
10
-0.133000
20
-0.833000
0
VERTEX
8
0
10
-0.128000
20
-0.833000
0
VERTEX
8
0
10
0.925000
20
0.220000
0
SEQEND
8
0
0
POLYLINE
8
0
66
1
40
0.010000
41
0.010000
0
VERTEX
8
0
10
-1.375000
20
-0.250000
0
VERTEX
8
0
10
-1.375000
20
0.275000
0
SEQEND
8
0
0
INSERT
8
0
2
EPAD
10
-1.100000
20
0.850000
41
0.030000
42
0.030000
0
CIRCLE
8
0
10
-1.100000
20
0.850000
40
0.015000
0
INSERT
8
0
2
EPAD
10
-1.500000
20
0.975000
41
0.030000
42
0.030000
0
CIRCLE
8
0
10
-1.500000
20
0.975000
40
0.015000
0
INSERT
8
0
2
EPAD
10
-0.725000
20
0.200000
41
0.030000
42
0.030000
0
CIRCLE
8
0
10
-0.725000
20
0.200000
40
0.015000
0
INSERT
8
0
2
EPAD
10
-0.425000
20
0.025000
41
0.030000
42
0.030000
0
CIRCLE
8
0
10
-0.425000
20
0.025000
40
0.015000
0
INSERT
8
0
2
EPAD
10
0.925000
20
0.025000
41
0.030000
42
0.030000
0
CIRCLE
8
0
10
0.925000
20
0.025000
40
0.015000
0
INSERT
8
0
2
EPAD
10
-0.525000
20
0.375000
41
0.030000
42
0.030000
0
CIRCLE
8
0
10
-0.525000
20
0.375000
40
0.015000
0
INSERT
8
0
2
EPAD
10
0.200000
20
0.750000
41
0.030000
42
0.030000
0
CIRCLE
8
0
10
0.200000
20
0.750000
40
0.015000
0
INSERT
8
0
2
EPAD
10
-1.550000
20
1.025000
41
0.030000
42
0.030000
0
CIRCLE
8
0
10
-1.550000
20
1.025000
40
0.015000
0
INSERT
8
0
2
EPAD
10
-1.900000
20
1.025000
41
0.030000
42
0.030000
0
CIRCLE
8
0
10
-1.900000
20
1.025000
40
0.015000
0
INSERT
8
0
2
EPAD
10
-1.375000
20
-0.250000
41
0.030000
42
0.030000
0
CIRCLE
8
0
10
-1.375000
20
-0.250000
40
0.015000
0
INSERT
8
0
2
RPAD
10
-1.075000
20
0.925000
41
0.080000
42
0.080000
50
0.000000
0
CIRCLE
8
0
10
-1.075000
20
0.925000
40
0.025000
0
INSERT
8
0
2
RPAD
10
-0.975000
20
0.925000
41
0.080000
42
0.080000
50
0.000000
0
CIRCLE
8
0
10
-0.975000
20
0.925000
40
0.025000
0
INSERT
8
0
2
RPAD
10
-0.875000
20
0.925000
41
0.080000
42
0.080000
50
0.000000
0
CIRCLE
8
0
10
-0.875000
20
0.925000
40
0.025000
0
INSERT
8
0
2
RPAD
10
-0.775000
20
0.925000
41
0.080000
42
0.080000
50
0.000000
0
CIRCLE
8
0
10
-0.775000
20
0.925000
40
0.025000
0
INSERT
8
0
2
RPAD
10
-0.675000
20
0.925000
41
0.080000
42
0.080000
50
0.000000
0
CIRCLE
8
0
10
-0.675000
20
0.925000
40
0.025000
0
INSERT
8
0
2
RPAD
10
-0.575000
20
0.925000
41
0.080000
42
0.080000
50
0.000000
0
CIRCLE
8
0
10
-0.575000
20
0.925000
40
0.025000
0
INSERT
8
0
2
RPAD
10
-0.475000
20
0.925000
41
0.080000
42
0.080000
50
0.000000
0
CIRCLE
8
0
10
-0.475000
20
0.925000
40
0.025000
0
INSERT
8
0
2
RPAD
10
-0.375000
20
0.925000
41
0.080000
42
0.080000
50
0.000000
0
CIRCLE
8
0
10
-0.375000
20
0.925000
40
0.025000
0
INSERT
8
0
2
RPAD
10
-0.275000
20
0.925000
41
0.080000
42
0.080000
50
0.000000
0
CIRCLE
8
0
10
-0.275000
20
0.925000
40
0.025000
0
INSERT
8
0
2
RPAD
10
-0.175000
20
0.925000
41
0.080000
42
0.080000
50
0.000000
0
CIRCLE
8
0
10
-0.175000
20
0.925000
40
0.025000
0
INSERT
8
0
2
RPAD
10
-0.175000
20
1.025000
41
0.080000
42
0.080000
50
0.000000
0
CIRCLE
8
0
10
-0.175000
20
1.025000
40
0.025000
0
INSERT
8
0
2
RPAD
10
-0.275000
20
1.025000
41
0.080000
42
0.080000
50
0.000000
0
CIRCLE
8
0
10
-0.275000
20
1.025000
40
0.025000
0
INSERT
8
0
2
RPAD
10
-0.375000
20
1.025000
41
0.080000
42
0.080000
50
0.000000
0
CIRCLE
8
0
10
-0.375000
20
1.025000
40
0.025000
0
INSERT
8
0
2
RPAD
10
-0.475000
20
1.025000
41
0.080000
42
0.080000
50
0.000000
0
CIRCLE
8
0
10
-0.475000
20
1.025000
40
0.025000
0
INSERT
8
0
2
RPAD
10
-0.575000
20
1.025000
41
0.080000
42
0.080000
50
0.000000
0
CIRCLE
8
0
10
-0.575000
20
1.025000
40
0.025000
0
INSERT
8
0
2
RPAD
10
-0.675000
20
1.025000
41
0.080000
42
0.080000
50
0.000000
0
CIRCLE
8
0
10
-0.675000
20
1.025000
40
0.025000
0
INSERT
8
0
2
RPAD
10
-0.775000
20
1.025000
41
0.080000
42
0.080000
50
0.000000
0
CIRCLE
8
0
10
-0.775000
20
1.025000
40
0.025000
0
INSERT
8
0
2
RPAD
10
-0.875000
20
1.025000
41
0.080000
42
0.080000
50
0.000000
0
CIRCLE
8
0
10
-0.875000
20
1.025000
40
0.025000
0
INSERT
8
0
2
RPAD
10
-0.975000
20
1.025000
41
0.080000
42
0.080000
50
0.000000
0
CIRCLE
8
0
10
-0.975000
20
1.025000
40
0.025000
0
INSERT
8
0
2
RPAD
10
-1.075000
20
1.025000
41
0.080000
42
0.080000
50
0.000000
0
CIRCLE
8
0
10
-1.075000
20
1.025000
40
0.025000
0
INSERT
8
0
2
EPAD
10
0.925000
20
-0.078000
41
0.100000
42
0.100000
0
CIRCLE
8
0
10
0.925000
20
-0.078000
40
0.030000
0
INSERT
8
0
2
EPAD
10
0.925000
20
0.220000
41
0.100000
42
0.100000
0
CIRCLE
8
0
10
0.925000
20
0.220000
40
0.030000
0
INSERT
8
0
2
EPAD
10
1.712000
20
0.220000
41
0.100000
42
0.100000
0
CIRCLE
8
0
10
1.712000
20
0.220000
40
0.030000
0
INSERT
8
0
2
EPAD
10
1.575000
20
-0.075000
41
0.100000
42
0.100000
0
CIRCLE
8
0
10
1.575000
20
-0.075000
40
0.030000
0
INSERT
8
0
2
EPAD
10
1.850000
20
-0.075000
41
0.100000
42
0.100000
0
CIRCLE
8
0
10
1.850000
20
-0.075000
40
0.030000
0
INSERT
8
0
2
RPAD
10
-2.025000
20
0.100000
41
0.050000
42
0.120000
50
0.000000
0
INSERT
8
0
2
RPAD
10
-1.825000
20
0.100000
41
0.050000
42
0.120000
50
0.000000
0
INSERT
8
0
2
RPAD
10
-1.925000
20
0.350000
41
0.050000
42
0.120000
50
0.000000
0
INSERT
8
0
2
RPAD
10
-1.925000
20
-0.950000
41
0.050000
42
0.120000
50
0.000000
0
INSERT
8
0
2
RPAD
10
-1.725000
20
-0.950000
41
0.050000
42
0.120000
50
0.000000
0
INSERT
8
0
2
RPAD
10
-1.825000
20
-0.700000
41
0.050000
42
0.120000
50
0.000000
0
INSERT
8
0
2
RPAD
10
-0.775000
20
-1.275000
41
0.050000
42
0.050000
50
0.000000
0
CIRCLE
8
0
10
-0.775000
20
-1.275000
40
0.030000
0
INSERT
8
0
2
EPAD
10
-0.675000
20
-1.275000
41
0.050000
42
0.050000
0
CIRCLE
8
0
10
-0.675000
20
-1.275000
40
0.030000
0
INSERT
8
0
2
EPAD
10
-0.575000
20
-1.275000
41
0.050000
42
0.050000
0
CIRCLE
8
0
10
-0.575000
20
-1.275000
40
0.030000
0
INSERT
8
0
2
EPAD
10
-0.475000
20
-1.275000
41
0.050000
42
0.050000
0
CIRCLE
8
0
10
-0.475000
20
-1.275000
40
0.030000
0
INSERT
8
0
2
EPAD
10
-0.375000
20
-1.275000
41
0.050000
42
0.050000
0
CIRCLE
8
0
10
-0.375000
20
-1.275000
40
0.030000
0
INSERT
8
0
2
EPAD
10
-0.275000
20
-1.275000
41
0.050000
42
0.050000
0
CIRCLE
8
0
10
-0.275000
20
-1.275000
40
0.030000
0
INSERT
8
0
2
EPAD
10
-0.175000
20
-1.275000
41
0.050000
42
0.050000
0
CIRCLE
8
0
10
-0.175000
20
-1.275000
40
0.030000
0
INSERT
8
0
2
EPAD
10
-0.175000
20
-0.975000
41
0.050000
42
0.050000
0
CIRCLE
8
0
10
-0.175000
20
-0.975000
40
0.030000
0
INSERT
8
0
2
EPAD
10
-0.275000
20
-0.975000
41
0.050000
42
0.050000
0
CIRCLE
8
0
10
-0.275000
20
-0.975000
40
0.030000
0
INSERT
8
0
2
EPAD
10
-0.375000
20
-0.975000
41
0.050000
42
0.050000
0
CIRCLE
8
0
10
-0.375000
20
-0.975000
40
0.030000
0
INSERT
8
0
2
EPAD
10
-0.475000
20
-0.975000
41
0.050000
42
0.050000
0
CIRCLE
8
0
10
-0.475000
20
-0.975000
40
0.030000
0
INSERT
8
0
2
EPAD
10
-0.575000
20
-0.975000
41
0.050000
42
0.050000
0
CIRCLE
8
0
10
-0.575000
20
-0.975000
40
0.030000
0
INSERT
8
0
2
EPAD
10
-0.675000
20
-0.975000
41
0.050000
42
0.050000
0
CIRCLE
8
0
10
-0.675000
20
-0.975000
40
0.030000
0
INSERT
8
0
2
EPAD
10
-0.775000
20
-0.975000
41
0.050000
42
0.050000
0
CIRCLE
8
0
10
-0.775000
20
-0.975000
40
0.030000
0
INSERT
8
0
2
RPAD
10
-1.375000
20
0.275000
41
0.080000
42
0.080000
50
0.000000
0
CIRCLE
8
0
10
-1.375000
20
0.275000
40
0.025000
0
INSERT
8
0
2
EPAD
10
-1.275000
20
0.275000
41
0.080000
42
0.080000
0
CIRCLE
8
0
10
-1.275000
20
0.275000
40
0.025000
0
INSERT
8
0
2
EPAD
10
-1.175000
20
0.275000
41
0.080000
42
0.080000
0
CIRCLE
8
0
10
-1.175000
20
0.275000
40
0.025000
0
INSERT
8
0
2
EPAD
10
-1.075000
20
0.275000
41
0.080000
42
0.080000
0
CIRCLE
8
0
10
-1.075000
20
0.275000
40
0.025000
0
INSERT
8
0
2
EPAD
10
-0.975000
20
0.275000
41
0.080000
42
0.080000
0
CIRCLE
8
0
10
-0.975000
20
0.275000
40
0.025000
0
INSERT
8
0
2
EPAD
10
-0.875000
20
0.275000
41
0.080000
42
0.080000
0
CIRCLE
8
0
10
-0.875000
20
0.275000
40
0.025000
0
INSERT
8
0
2
EPAD
10
-0.775000
20
0.275000
41
0.080000
42
0.080000
0
CIRCLE
8
0
10
-0.775000
20
0.275000
40
0.025000
0
INSERT
8
0
2
EPAD
10
-0.675000
20
0.275000
41
0.080000
42
0.080000
0
CIRCLE
8
0
10
-0.675000
20
0.275000
40
0.025000
0
INSERT
8
0
2
EPAD
10
-0.575000
20
0.275000
41
0.080000
42
0.080000
0
CIRCLE
8
0
10
-0.575000
20
0.275000
40
0.025000
0
INSERT
8
0
2
EPAD
10
-0.475000
20
0.275000
41
0.080000
42
0.080000
0
CIRCLE
8
0
10
-0.475000
20
0.275000
40
0.025000
0
INSERT
8
0
2
EPAD
10
-0.375000
20
0.275000
41
0.080000
42
0.080000
0
CIRCLE
8
0
10
-0.375000
20
0.275000
40
0.025000
0
INSERT
8
0
2
EPAD
10
-0.275000
20
0.275000
41
0.080000
42
0.080000
0
CIRCLE
8
0
10
-0.275000
20
0.275000
40
0.025000
0
INSERT
8
0
2
EPAD
10
-0.175000
20
0.275000
41
0.080000
42
0.080000
0
CIRCLE
8
0
10
-0.175000
20
0.275000
40
0.025000
0
INSERT
8
0
2
EPAD
10
-0.075000
20
0.275000
41
0.080000
42
0.080000
0
CIRCLE
8
0
10
-0.075000
20
0.275000
40
0.025000
0
INSERT
8
0
2
EPAD
10
0.025000
20
0.275000
41
0.080000
42
0.080000
0
CIRCLE
8
0
10
0.025000
20
0.275000
40
0.025000
0
INSERT
8
0
2
EPAD
10
0.025000
20
-0.325000
41
0.080000
42
0.080000
0
CIRCLE
8
0
10
0.025000
20
-0.325000
40
0.025000
0
INSERT
8
0
2
EPAD
10
-0.075000
20
-0.325000
41
0.080000
42
0.080000
0
CIRCLE
8
0
10
-0.075000
20
-0.325000
40
0.025000
0
INSERT
8
0
2
EPAD
10
-0.175000
20
-0.325000
41
0.080000
42
0.080000
0
CIRCLE
8
0
10
-0.175000
20
-0.325000
40
0.025000
0
INSERT
8
0
2
EPAD
10
-0.275000
20
-0.325000
41
0.080000
42
0.080000
0
CIRCLE
8
0
10
-0.275000
20
-0.325000
40
0.025000
0
INSERT
8
0
2
EPAD
10
-0.375000
20
-0.325000
41
0.080000
42
0.080000
0
CIRCLE
8
0
10
-0.375000
20
-0.325000
40
0.025000
0
INSERT
8
0
2
EPAD
10
-0.475000
20
-0.325000
41
0.080000
42
0.080000
0
CIRCLE
8
0
10
-0.475000
20
-0.325000
40
0.025000
0
INSERT
8
0
2
EPAD
10
-0.575000
20
-0.325000
41
0.080000
42
0.080000
0
CIRCLE
8
0
10
-0.575000
20
-0.325000
40
0.025000
0
INSERT
8
0
2
EPAD
10
-0.675000
20
-0.325000
41
0.080000
42
0.080000
0
CIRCLE
8
0
10
-0.675000
20
-0.325000
40
0.025000
0
INSERT
8
0
2
EPAD
10
-0.775000
20
-0.325000
41
0.080000
42
0.080000
0
CIRCLE
8
0
10
-0.775000
20
-0.325000
40
0.025000
0
INSERT
8
0
2
EPAD
10
-0.875000
20
-0.325000
41
0.080000
42
0.080000
0
CIRCLE
8
0
10
-0.875000
20
-0.325000
40
0.025000
0
INSERT
8
0
2
EPAD
10
-0.975000
20
-0.325000
41
0.080000
42
0.080000
0
CIRCLE
8
0
10
-0.975000
20
-0.325000
40
0.025000
0
INSERT
8
0
2
EPAD
10
-1.075000
20
-0.325000
41
0.080000
42
0.080000
0
CIRCLE
8
0
10
-1.075000
20
-0.325000
40
0.025000
0
INSERT
8
0
2
EPAD
10
-1.175000
20
-0.325000
41
0.080000
42
0.080000
0
CIRCLE
8
0
10
-1.175000
20
-0.325000
40
0.025000
0
INSERT
8
0
2
EPAD
10
-1.275000
20
-0.325000
41
0.080000
42
0.080000
0
CIRCLE
8
0
10
-1.275000
20
-0.325000
40
0.025000
0
INSERT
8
0
2
EPAD
10
-1.375000
20
-0.325000
41
0.080000
42
0.080000
0
CIRCLE
8
0
10
-1.375000
20
-0.325000
40
0.025000
0
POLYLINE
8
0
66
1
40
0.008000
41
0.008000
0
VERTEX
8
0
10
-1.125000
20
0.875000
0
VERTEX
8
0
10
-0.125000
20
0.875000
0
VERTEX
8
0
10
-0.125000
20
1.075000
0
VERTEX
8
0
10
-1.125000
20
1.075000
0
VERTEX
8
0
10
-1.125000
20
0.875000
0
SEQEND
8
0
0
TEXT
8
12632256
10
-0.725000
20
1.085000
40
0.048000
41
1.041667
1
LCD1
0
POLYLINE
8
0
66
1
40
0.008000
41
0.008000
0
VERTEX
8
0
10
0.816000
20
-0.154000
0
VERTEX
8
0
10
1.962000
20
-0.154000
0
VERTEX
8
0
10
1.962000
20
0.295000
0
VERTEX
8
0
10
0.816000
20
0.295000
0
VERTEX
8
0
10
0.816000
20
-0.154000
0
SEQEND
8
0
0
TEXT
8
12632256
10
1.314000
20
0.305000
40
0.048000
41
1.041667
1
RL1
0
POLYLINE
8
0
66
1
40
0.008000
41
0.008000
0
VERTEX
8
0
10
-2.075000
20
0.075000
0
VERTEX
8
0
10
-2.090000
20
0.075000
0
VERTEX
8
0
10
-2.090000
20
0.375000
0
VERTEX
8
0
10
-1.965000
20
0.375000
0
SEQEND
8
0
0
POLYLINE
8
0
66
1
40
0.008000
41
0.008000
0
VERTEX
8
0
10
-1.885000
20
0.375000
0
VERTEX
8
0
10
-1.760000
20
0.375000
0
VERTEX
8
0
10
-1.760000
20
0.075000
0
VERTEX
8
0
10
-1.775000
20
0.075000
0
SEQEND
8
0
0
POLYLINE
8
0
66
1
40
0.008000
41
0.008000
0
VERTEX
8
0
10
-1.985000
20
0.070000
0
VERTEX
8
0
10
-1.975000
20
0.070000
0
VERTEX
8
0
10
-1.975000
20
0.080000
0
VERTEX
8
0
10
-1.875000
20
0.080000
0
VERTEX
8
0
10
-1.875000
20
0.070000
0
VERTEX
8
0
10
-1.865000
20
0.070000
0
SEQEND
8
0
0
TEXT
8
12632256
10
-2.000000
20
0.385000
40
0.048000
41
1.041667
1
RV1
0
POLYLINE
8
0
66
1
40
0.008000
41
0.008000
0
VERTEX
8
0
10
-1.975000
20
-0.975000
0
VERTEX
8
0
10
-1.990000
20
-0.975000
0
VERTEX
8
0
10
-1.990000
20
-0.675000
0
VERTEX
8
0
10
-1.865000
20
-0.675000
0
SEQEND
8
0
0
POLYLINE
8
0
66
1
40
0.008000
41
0.008000
0
VERTEX
8
0
10
-1.785000
20
-0.675000
0
VERTEX
8
0
10
-1.660000
20
-0.675000
0
VERTEX
8
0
10
-1.660000
20
-0.975000
0
VERTEX
8
0
10
-1.675000
20
-0.975000
0
SEQEND
8
0
0
POLYLINE
8
0
66
1
40
0.008000
41
0.008000
0
VERTEX
8
0
10
-1.885000
20
-0.980000
0
VERTEX
8
0
10
-1.875000
20
-0.980000
0
VERTEX
8
0
10
-1.875000
20
-0.970000
0
VERTEX
8
0
10
-1.775000
20
-0.970000
0
VERTEX
8
0
10
-1.775000
20
-0.980000
0
VERTEX
8
0
10
-1.765000
20
-0.980000
0
SEQEND
8
0
0
TEXT
8
12632256
10
-1.900000
20
-0.665000
40
0.048000
41
1.041667
1
RV2
0
POLYLINE
8
0
66
1
40
0.008000
41
0.008000
0
VERTEX
8
0
10
-0.825000
20
-1.075000
0
VERTEX
8
0
10
-0.825000
20
-1.025000
0
SEQEND
8
0
0
POLYLINE
8
0
66
1
40
0.008000
41
0.008000
0
VERTEX
8
0
10
-0.825000
20
-1.225000
0
VERTEX
8
0
10
-0.825000
20
-1.175000
0
SEQEND
8
0
0
POLYLINE
8
0
66
1
40
0.008000
41
0.008000
0
VERTEX
8
0
10
-0.775000
20
-1.125000
0
VERTEX
8
0
10
-0.776000
20
-1.115000
0
VERTEX
8
0
10
-0.779000
20
-1.105000
0
VERTEX
8
0
10
-0.783000
20
-1.097000
0
VERTEX
8
0
10
-0.789000
20
-1.090000
0
VERTEX
8
0
10
-0.796000
20
-1.083000
0
VERTEX
8
0
10
-0.805000
20
-1.079000
0
VERTEX
8
0
10
-0.815000
20
-1.076000
0
VERTEX
8
0
10
-0.825000
20
-1.075000
0
SEQEND
8
0
0
POLYLINE
8
0
66
1
40
0.008000
41
0.008000
0
VERTEX
8
0
10
-0.775000
20
-1.125000
0
VERTEX
8
0
10
-0.776000
20
-1.135000
0
VERTEX
8
0
10
-0.779000
20
-1.145000
0
VERTEX
8
0
10
-0.783000
20
-1.154000
0
VERTEX
8
0
10
-0.789000
20
-1.161000
0
VERTEX
8
0
10
-0.796000
20
-1.167000
0
VERTEX
8
0
10
-0.805000
20
-1.171000
0
VERTEX
8
0
10
-0.815000
20
-1.174000
0
VERTEX
8
0
10
-0.825000
20
-1.175000
0
SEQEND
8
0
0
POLYLINE
8
0
66
1
40
0.008000
41
0.008000
0
VERTEX
8
0
10
-0.825000
20
-1.225000
0
VERTEX
8
0
10
-0.125000
20
-1.225000
0
VERTEX
8
0
10
-0.125000
20
-1.025000
0
VERTEX
8
0
10
-0.825000
20
-1.025000
0
SEQEND
8
0
0
TEXT
8
12632256
10
-0.835000
20
-1.200000
40
0.048000
41
1.041667
50
90.000000
1
SW1
0
POLYLINE
8
0
66
1
40
0.008000
41
0.008000
0
VERTEX
8
0
10
-1.475000
20
-0.375000
0
VERTEX
8
0
10
0.175000
20
-0.375000
0
VERTEX
8
0
10
0.175000
20
0.325000
0
VERTEX
8
0
10
-1.475000
20
0.325000
0
VERTEX
8
0
10
-1.475000
20
-0.375000
0
SEQEND
8
0
0
POLYLINE
8
0
66
1
40
0.008000
41
0.008000
0
VERTEX
8
0
10
-0.075000
20
-0.125000
0
VERTEX
8
0
10
0.425000
20
-0.125000
0
VERTEX
8
0
10
0.425000
20
0.075000
0
VERTEX
8
0
10
-0.075000
20
0.075000
0
VERTEX
8
0
10
-0.075000
20
-0.125000
0
SEQEND
8
0
0
TEXT
8
12632256
10
-0.625000
20
0.335000
40
0.048000
41
1.041667
1
SIM1
0
POLYLINE
8
0
66
1
40
0.008000
41
0.008000
0
VERTEX
8
0
10
-2.425000
20
-1.475000
0
VERTEX
8
0
10
2.425000
20
-1.475000
0
VERTEX
8
0
10
2.425000
20
1.475000
0
VERTEX
8
0
10
-2.425000
20
1.475000
0
VERTEX
8
0
10
-2.425000
20
-1.475000
0
SEQEND
8
0
0
ENDSEC
0
EOF

